<?xml version="1.0" standalone="no"?>
<!DOCTYPE svg PUBLIC "-//W3C//DTD SVG 20010904//EN"
 "http://www.w3.org/TR/2001/REC-SVG-20010904/DTD/svg10.dtd">
<svg version="1.0" xmlns="http://www.w3.org/2000/svg"
 width="512.000000pt" height="512.000000pt" viewBox="0 0 512.000000 512.000000"
 preserveAspectRatio="xMidYMid meet">

<g transform="translate(0.000000,512.000000) scale(0.100000,-0.100000)"
fill="#000000" stroke="none">
<path d="M2060 4869 c-93 -12 -244 -52 -335 -88 -229 -92 -422 -261 -557 -487
l-47 -79 -168 -1 c-238 -1 -414 -35 -620 -119 -83 -33 -276 -143 -313 -177
-25 -24 -26 -64 -1 -77 10 -6 124 -33 252 -61 507 -111 652 -145 664 -156 7
-7 14 -61 18 -136 10 -196 49 -388 109 -532 34 -84 53 -106 88 -106 31 0 50
19 111 110 l44 65 7 -48 c18 -126 73 -256 147 -346 25 -31 35 -52 33 -71 -5
-45 18 -150 43 -200 13 -25 40 -66 61 -91 61 -73 71 -107 79 -269 30 -670 149
-1134 380 -1481 95 -143 144 -193 233 -236 l76 -38 1264 -3 c814 -1 1277 1
1300 8 66 17 129 65 161 122 l31 53 0 786 c0 758 -1 789 -20 850 -11 35 -33
87 -49 114 -36 62 -631 798 -709 878 -104 106 -215 165 -370 196 l-83 17 -64
152 c-412 986 -946 1470 -1610 1461 -49 -1 -119 -5 -155 -10z m336 -90 c119
-16 239 -54 360 -114 322 -158 603 -472 853 -955 76 -147 201 -425 201 -447 0
-8 -13 -13 -34 -13 -54 0 -217 -45 -299 -83 -50 -23 -94 -53 -127 -86 -54 -55
-107 -152 -117 -217 -4 -32 -21 -55 -92 -127 -292 -299 -669 -560 -996 -690
-95 -38 -295 -100 -356 -111 l-36 -6 -7 117 c-8 136 -26 185 -99 271 -53 64
-77 131 -77 218 0 52 12 95 70 260 39 109 70 208 70 221 0 27 -47 44 -61 22
-4 -7 -33 -88 -64 -179 -31 -91 -60 -169 -65 -174 -13 -14 -77 93 -104 175
-14 42 -29 109 -32 148 -8 80 -31 121 -68 121 -31 0 -45 -13 -112 -108 l-58
-83 -18 35 c-54 106 -100 341 -102 525 l-1 133 90 30 c110 36 219 87 264 125
28 24 34 37 38 78 4 45 1 56 -35 110 -41 63 -107 136 -155 173 l-29 21 44 77
c80 141 204 273 341 361 221 143 538 210 813 172z m-1240 -674 c48 -31 149
-140 175 -190 l24 -46 -30 -25 c-39 -31 -169 -86 -276 -118 l-86 -24 -129 28
c-71 15 -164 36 -206 45 l-78 17 0 65 c0 35 -7 96 -16 134 -9 39 -14 72 -12
75 8 8 166 44 234 53 38 5 137 9 220 7 128 -1 156 -5 180 -21z m2859 -946 c38
-13 41 -17 53 -74 22 -108 26 -319 8 -423 -54 -309 -250 -548 -590 -718 -60
-30 -113 -51 -117 -47 -10 10 -45 184 -59 293 -18 139 -23 396 -11 532 14 159
37 225 100 287 54 54 203 135 287 156 73 18 271 15 329 -6z m-803 -590 c-6
-206 22 -465 69 -654 67 -262 171 -464 339 -654 34 -40 60 -79 63 -99 4 -18
21 -67 38 -109 83 -199 238 -356 434 -440 41 -17 51 -26 53 -50 5 -49 33 -135
60 -188 15 -27 28 -53 30 -57 2 -5 -407 -8 -910 -8 -998 0 -1005 1 -1098 58
-55 33 -157 165 -230 298 -159 287 -253 639 -295 1111 l-7 71 59 12 c32 7 126
34 208 61 361 118 764 370 1085 677 52 50 97 91 100 92 3 0 3 -55 2 -121z
m1612 -229 c92 -113 161 -209 180 -250 l31 -65 3 -770 c2 -519 0 -782 -7 -806
-15 -51 -48 -88 -95 -110 -36 -16 -69 -19 -288 -19 l-246 0 -41 61 c-47 70
-71 142 -71 210 0 25 -6 51 -12 57 -7 6 -44 22 -82 36 -148 56 -284 168 -359
296 -32 55 -93 218 -85 225 2 2 37 19 78 40 251 125 453 320 572 551 101 195
151 397 170 675 l11 166 47 -56 c25 -31 113 -139 194 -241z"/>
<path d="M2023 4465 c-232 -63 -383 -290 -345 -519 34 -202 187 -354 390 -387
231 -38 456 113 517 348 29 110 15 216 -42 326 -97 186 -320 285 -520 232z
m189 -311 c60 -31 95 -111 78 -176 -20 -70 -119 -128 -187 -109 -47 14 -69 28
-88 58 -43 64 -37 138 17 198 47 54 111 64 180 29z"/>
</g>
</svg>
