<?xml version="1.0" standalone="no"?>
<!DOCTYPE svg PUBLIC "-//W3C//DTD SVG 20010904//EN"
 "http://www.w3.org/TR/2001/REC-SVG-20010904/DTD/svg10.dtd">
<svg version="1.0" xmlns="http://www.w3.org/2000/svg"
 width="256.000000pt" height="256.000000pt" viewBox="0 0 256.000000 256.000000"
 preserveAspectRatio="xMidYMid meet">

<g transform="translate(0.000000,256.000000) scale(0.100000,-0.100000)"
fill="#000000" stroke="none">
<path d="M1137 2549 c-55 -4 -150 -18 -213 -30 -98 -18 -117 -25 -131 -46 -15
-22 -15 -26 0 -40 14 -14 25 -13 121 6 452 91 909 11 1208 -210 129 -96 246
-246 309 -398 35 -85 34 -124 -7 -162 l-26 -24 -1120 0 -1120 0 -30 34 c-26
29 -29 40 -25 73 3 21 21 73 41 114 98 207 252 362 466 469 41 21 78 43 82 49
14 20 8 36 -16 47 -20 9 -36 5 -106 -30 -46 -23 -110 -61 -144 -83 -79 -54
-211 -186 -266 -267 -52 -77 -126 -232 -135 -283 -8 -44 8 -98 41 -137 l23
-28 -26 -24 c-37 -35 -63 -97 -63 -155 0 -97 40 -168 115 -204 l45 -22 0 -112
0 -112 -34 -12 c-166 -60 -166 -337 -1 -408 29 -12 31 -17 43 -96 24 -171 121
-300 285 -379 152 -74 158 -74 827 -74 669 0 675 0 827 74 164 79 261 208 285
379 12 79 14 84 43 96 165 71 165 348 -1 408 l-34 12 0 112 0 112 45 22 c75
36 115 107 115 204 0 58 -26 120 -63 155 l-26 24 24 29 c30 36 48 100 40 141
-10 49 -87 207 -135 278 -24 35 -80 101 -124 145 -211 211 -491 324 -878 354
-73 5 -140 9 -148 9 -8 -1 -59 -5 -113 -10z m1183 -1394 l0 -45 -384 0 c-411
0 -417 -1 -401 -50 6 -20 12 -20 396 -20 l389 0 0 -92 c0 -71 -4 -95 -17 -110
-21 -23 -58 -23 -91 0 -87 61 -175 54 -286 -23 -91 -62 -121 -59 -263 30 -41
25 -58 30 -113 30 -68 -1 -109 -16 -162 -61 -37 -30 -92 -47 -132 -40 -18 3
-63 26 -100 51 -118 77 -197 72 -325 -20 -19 -14 -38 -25 -42 -25 -5 0 -9 51
-9 114 0 93 3 116 17 127 12 11 83 15 322 19 284 5 306 6 309 23 9 45 -2 47
-325 47 -331 0 -341 -2 -379 -57 -17 -25 -19 -52 -22 -295 l-3 -268 -26 -20
c-33 -25 -54 -25 -87 1 l-26 20 0 255 c0 356 -1 357 -196 362 l-124 4 0 44 0
44 1040 0 1040 0 0 -45z m-1862 -131 c19 -13 22 -24 22 -78 l0 -63 -42 -7
c-24 -4 -60 -18 -80 -31 -44 -29 -74 -32 -100 -8 -15 13 -18 32 -18 110 l0 93
98 0 c72 0 103 -4 120 -16z m26 -526 c8 -51 67 -112 118 -122 84 -16 178 57
178 139 l0 25 709 0 c389 0 736 -3 771 -7 l62 -6 -6 -53 c-20 -171 -134 -295
-330 -362 l-81 -27 -615 0 c-673 0 -663 -1 -797 61 -143 64 -237 188 -250 327
l-6 67 120 0 120 0 7 -42z"/>
<path d="M938 2253 c-24 -28 -45 -76 -41 -95 6 -23 40 -33 59 -17 9 7 24 30
35 51 15 30 17 43 9 58 -13 25 -42 26 -62 3z"/>
<path d="M1244 2247 c-17 -71 14 -136 54 -111 21 13 29 98 11 120 -19 23 -58
18 -65 -9z"/>
<path d="M1562 2258 c-18 -18 -15 -34 13 -77 29 -47 39 -54 64 -46 26 8 31 33
13 70 -29 61 -63 80 -90 53z"/>
</g>
</svg>
